<?xml version="1.0" standalone="no"?>
<!DOCTYPE svg PUBLIC "-//W3C//DTD SVG 20010904//EN"
 "http://www.w3.org/TR/2001/REC-SVG-20010904/DTD/svg10.dtd">
<svg version="1.0" xmlns="http://www.w3.org/2000/svg" style="background-color: #FFFFFF;"
 width="5000.000000pt" height="5000.000000pt" viewBox="0 0 5000.000000 5000.000000"
 preserveAspectRatio="xMidYMid meet">

<g transform="translate(0.000000,5000.000000) scale(0.100000,-0.100000)"
fill="#2B333B" stroke="none">
<path d="M16440 40125 l0 -45 -135 0 -135 0 0 -45 0 -45 -90 0 -90 0 0 -40 0
-40 -45 0 -45 0 0 -45 0 -45 -45 0 -45 0 0 -45 0 -45 -45 0 -45 0 0 -40 0 -40
-45 0 -45 0 0 -90 0 -90 -45 0 -45 0 0 -45 0 -45 -45 0 -45 0 0 -215 0 -215
-45 0 -45 0 0 -1780 0 -1780 -4015 0 -4015 0 0 -45 0 -45 -180 0 -180 0 0 -45
0 -45 -130 0 -130 0 0 -45 0 -45 -90 0 -90 0 0 -40 0 -40 -45 0 -45 0 0 -45 0
-45 -90 0 -90 0 0 -45 0 -45 -45 0 -45 0 0 -40 0 -40 -45 0 -45 0 0 -45 0 -45
-45 0 -45 0 0 -45 0 -45 -45 0 -45 0 0 -85 0 -85 -45 0 -45 0 0 -45 0 -45 -45
0 -45 0 0 -85 0 -85 -45 0 -45 0 0 -90 0 -90 -45 0 -45 0 0 -130 0 -130 -40 0
-40 0 0 -2130 0 -2130 40 0 40 0 0 -40 0 -40 45 0 45 0 0 -90 0 -90 45 0 45 0
0 -40 0 -40 90 0 90 0 0 -45 0 -45 45 0 45 0 0 -45 0 -45 18790 0 18790 0 0
45 0 45 90 0 90 0 0 45 0 45 45 0 45 0 0 40 0 40 45 0 45 0 0 45 0 45 45 0 45
0 0 85 0 85 45 0 45 0 0 130 0 130 45 0 45 0 0 1830 0 1830 -45 0 -45 0 0 215
0 215 -45 0 -45 0 0 130 0 130 -45 0 -45 0 0 90 0 90 -45 0 -45 0 0 85 0 85
-45 0 -45 0 0 45 0 45 -45 0 -45 0 0 40 0 40 -45 0 -45 0 0 45 0 45 -45 0 -45
0 0 45 0 45 -45 0 -45 0 0 40 0 40 -40 0 -40 0 0 45 0 45 -45 0 -45 0 0 45 0
45 -90 0 -90 0 0 40 0 40 -90 0 -90 0 0 45 0 45 -135 0 -135 0 0 45 0 45 -180
0 -180 0 0 45 0 45 -4015 0 -4015 0 0 1865 0 1865 -45 0 -45 0 0 130 0 130
-45 0 -45 0 0 90 0 90 -45 0 -45 0 0 45 0 45 -45 0 -45 0 0 85 0 85 -45 0 -45
0 0 45 0 45 -85 0 -85 0 0 40 0 40 -45 0 -45 0 0 45 0 45 -135 0 -135 0 0 45
0 45 -8390 0 -8390 0 0 -45z m15800 -1570 l0 -45 85 0 85 0 0 -40 0 -40 45 0
45 0 0 -45 0 -45 45 0 45 0 0 -45 0 -45 45 0 45 0 0 -130 0 -130 45 0 45 0 0
-3215 0 -3215 -310 0 -310 0 0 1915 0 1915 -7320 0 -7320 0 0 -45 0 -45 -45 0
-45 0 0 -1870 0 -1870 -270 0 -270 0 0 3305 0 3305 45 0 45 0 0 85 0 85 45 0
45 0 0 45 0 45 90 0 90 0 0 40 0 40 45 0 45 0 0 45 0 45 7455 0 7455 0 0 -45z
m-19290 -3735 l0 -40 90 0 90 0 0 -45 0 -45 45 0 45 0 0 -45 0 -45 45 0 45 0
0 -40 0 -40 45 0 45 0 0 -1480 0 -1480 -1650 0 -1650 0 0 1480 0 1480 45 0 45
0 0 40 0 40 45 0 45 0 0 45 0 45 45 0 45 0 0 45 0 45 85 0 85 0 0 40 0 40
1205 0 1205 0 0 -40z m26070 0 l0 -40 135 0 135 0 0 -45 0 -45 45 0 45 0 0
-85 0 -85 45 0 45 0 0 -1480 0 -1480 -1655 0 -1655 0 0 1480 0 1480 45 0 45 0
0 40 0 40 45 0 45 0 0 45 0 45 45 0 45 0 0 45 0 45 90 0 90 0 0 40 0 40 1205
0 1205 0 0 -40z"/>
<path d="M6620 28300 l0 -40 -45 0 -45 0 0 -8475 0 -8475 18255 0 18255 0 0
8515 0 8515 -18210 0 -18210 0 0 -40z m31870 -1785 l0 -955 980 0 980 0 0
-695 0 -695 -980 0 -980 0 0 -45 0 -45 40 0 40 0 0 -40 0 -40 -40 0 -40 0 0
-870 0 -870 -670 0 -670 0 0 955 0 955 -985 0 -985 0 0 610 0 610 -45 0 -45 0
0 45 0 45 45 0 45 0 0 40 0 40 985 0 985 0 0 955 0 955 670 0 670 0 0 -955z
m-24110 -995 l0 -40 45 0 45 0 0 -610 0 -610 -45 0 -45 0 0 -45 0 -45 -2630 0
-2630 0 0 695 0 695 2630 0 2630 0 0 -40z m12410 -1785 l0 -85 -45 0 -45 0 0
-45 0 -45 -45 0 -45 0 0 -85 0 -85 -45 0 -45 0 0 -45 0 -45 -45 0 -45 0 0 -45
0 -45 -45 0 -45 0 0 -85 0 -85 -40 0 -40 0 0 -45 0 -45 -45 0 -45 0 0 -40 0
-40 -45 0 -45 0 0 -90 0 -90 -45 0 -45 0 0 -40 0 -40 -45 0 -45 0 0 -45 0 -45
-45 0 -45 0 0 -45 0 -45 -45 0 -45 0 0 -40 0 -40 -45 0 -45 0 0 -90 0 -90 -45
0 -45 0 0 -45 0 -45 -45 0 -45 0 0 -40 0 -40 -45 0 -45 0 0 -45 0 -45 -45 0
-45 0 0 -85 0 -85 -45 0 -45 0 0 -45 0 -45 -45 0 -45 0 0 -45 0 -45 -40 0 -40
0 0 -40 0 -40 -45 0 -45 0 0 -45 0 -45 -45 0 -45 0 0 -45 0 -45 -45 0 -45 0 0
-85 0 -85 -45 0 -45 0 0 -45 0 -45 -45 0 -45 0 0 -45 0 -45 1605 0 1605 0 0
-40 0 -40 45 0 45 0 0 -45 0 -45 -90 0 -90 0 0 -45 0 -45 -45 0 -45 0 0 -40 0
-40 -45 0 -45 0 0 -45 0 -45 -40 0 -40 0 0 -45 0 -45 -45 0 -45 0 0 -40 0 -40
-45 0 -45 0 0 -45 0 -45 -45 0 -45 0 0 -45 0 -45 -45 0 -45 0 0 -40 0 -40 -45
0 -45 0 0 -45 0 -45 -45 0 -45 0 0 -45 0 -45 -45 0 -45 0 0 -45 0 -45 -45 0
-45 0 0 -40 0 -40 -45 0 -45 0 0 -45 0 -45 -45 0 -45 0 0 -45 0 -45 -45 0 -45
0 0 -40 0 -40 -45 0 -45 0 0 -45 0 -45 -40 0 -40 0 0 -45 0 -45 -45 0 -45 0 0
-40 0 -40 -45 0 -45 0 0 -45 0 -45 -45 0 -45 0 0 -45 0 -45 -45 0 -45 0 0 -40
0 -40 -90 0 -90 0 0 -45 0 -45 -45 0 -45 0 0 -45 0 -45 -45 0 -45 0 0 -45 0
-45 -45 0 -45 0 0 -40 0 -40 -45 0 -45 0 0 -45 0 -45 -45 0 -45 0 0 -45 0 -45
-45 0 -45 0 0 -40 0 -40 -45 0 -45 0 0 -45 0 -45 -40 0 -40 0 0 -45 0 -45 -45
0 -45 0 0 -40 0 -40 -90 0 -90 0 0 -45 0 -45 -45 0 -45 0 0 -45 0 -45 -45 0
-45 0 0 -40 0 -40 -45 0 -45 0 0 -45 0 -45 -45 0 -45 0 0 -45 0 -45 -45 0 -45
0 0 -45 0 -45 -45 0 -45 0 0 -40 0 -40 -90 0 -90 0 0 -45 0 -45 -45 0 -45 0 0
-45 0 -45 -45 0 -45 0 0 -40 0 -40 -40 0 -40 0 0 -45 0 -45 -45 0 -45 0 0 -45
0 -45 -90 0 -90 0 0 -40 0 -40 -45 0 -45 0 0 -45 0 -45 -45 0 -45 0 0 -45 0
-45 -45 0 -45 0 0 -45 0 -45 -45 0 -45 0 0 -40 0 -40 -90 0 -90 0 0 -45 0 -45
-45 0 -45 0 0 -45 0 -45 -45 0 -45 0 0 -40 0 -40 -85 0 -85 0 0 -45 0 -45 -45
0 -45 0 0 -45 0 -45 -45 0 -45 0 0 -40 0 -40 -45 0 -45 0 0 -45 0 -45 -90 0
-90 0 0 -45 0 -45 -45 0 -45 0 0 -40 0 -40 -45 0 -45 0 0 -45 0 -45 -90 0 -90
0 0 45 0 45 45 0 45 0 0 40 0 40 45 0 45 0 0 90 0 90 45 0 45 0 0 40 0 40 45
0 45 0 0 45 0 45 45 0 45 0 0 85 0 85 45 0 45 0 0 45 0 45 45 0 45 0 0 45 0
45 45 0 45 0 0 85 0 85 45 0 45 0 0 45 0 45 40 0 40 0 0 45 0 45 45 0 45 0 0
40 0 40 45 0 45 0 0 90 0 90 45 0 45 0 0 40 0 40 45 0 45 0 0 45 0 45 45 0 45
0 0 45 0 45 45 0 45 0 0 40 0 40 45 0 45 0 0 90 0 90 45 0 45 0 0 45 0 45 45
0 45 0 0 40 0 40 45 0 45 0 0 45 0 45 45 0 45 0 0 45 0 45 45 0 45 0 0 85 0
85 40 0 40 0 0 45 0 45 45 0 45 0 0 40 0 40 45 0 45 0 0 45 0 45 45 0 45 0 0
45 0 45 45 0 45 0 0 40 0 40 45 0 45 0 0 45 0 45 45 0 45 0 0 45 0 45 45 0 45
0 0 85 0 85 45 0 45 0 0 45 0 45 45 0 45 0 0 45 0 45 45 0 45 0 0 40 0 40 45
0 45 0 0 45 0 45 45 0 45 0 0 45 0 45 45 0 45 0 0 40 0 40 40 0 40 0 0 45 0
45 45 0 45 0 0 45 0 45 45 0 45 0 0 85 0 85 -1295 0 -1295 0 0 45 0 45 -220 0
-220 0 0 45 0 45 45 0 45 0 0 40 0 40 45 0 45 0 0 45 0 45 45 0 45 0 0 45 0
45 45 0 45 0 0 40 0 40 40 0 40 0 0 45 0 45 45 0 45 0 0 45 0 45 45 0 45 0 0
40 0 40 45 0 45 0 0 45 0 45 45 0 45 0 0 45 0 45 45 0 45 0 0 40 0 40 90 0 90
0 0 45 0 45 45 0 45 0 0 45 0 45 45 0 45 0 0 45 0 45 45 0 45 0 0 40 0 40 45
0 45 0 0 45 0 45 45 0 45 0 0 45 0 45 40 0 40 0 0 40 0 40 45 0 45 0 0 45 0
45 90 0 90 0 0 45 0 45 45 0 45 0 0 40 0 40 45 0 45 0 0 45 0 45 45 0 45 0 0
45 0 45 45 0 45 0 0 40 0 40 45 0 45 0 0 45 0 45 90 0 90 0 0 45 0 45 45 0 45
0 0 45 0 45 45 0 45 0 0 40 0 40 45 0 45 0 0 45 0 45 40 0 40 0 0 45 0 45 90
0 90 0 0 40 0 40 45 0 45 0 0 45 0 45 45 0 45 0 0 45 0 45 45 0 45 0 0 40 0
40 90 0 90 0 0 45 0 45 45 0 45 0 0 45 0 45 45 0 45 0 0 40 0 40 45 0 45 0 0
45 0 45 90 0 90 0 0 45 0 45 45 0 45 0 0 45 0 45 40 0 40 0 0 40 0 40 90 0 90
0 0 45 0 45 45 0 45 0 0 45 0 45 45 0 45 0 0 40 0 40 45 0 45 0 0 -85z"/>
<path d="M6170 10655 l0 -45 -90 0 -90 0 0 -45 0 -45 -90 0 -90 0 0 -40 0 -40
-45 0 -45 0 0 -45 0 -45 -45 0 -45 0 0 -90 0 -90 -45 0 -45 0 0 -40 0 -40 -40
0 -40 0 0 -1000 0 -1000 19370 0 19370 0 0 565 0 565 -45 0 -45 0 0 85 0 85
45 0 45 0 0 90 0 90 -45 0 -45 0 0 130 0 130 -45 0 -45 0 0 130 0 130 -45 0
-45 0 0 40 0 40 -45 0 -45 0 0 45 0 45 -45 0 -45 0 0 45 0 45 -45 0 -45 0 0
45 0 45 -45 0 -45 0 0 40 0 40 -90 0 -90 0 0 45 0 45 -85 0 -85 0 0 45 0 45
-18525 0 -18525 0 0 -45z"/>
</g>
</svg>
